<?xml version="1.0" encoding="UTF-8" standalone="no"?>
<!DOCTYPE svg PUBLIC "-//W3C//DTD SVG 1.1//EN" "http://www.w3.org/Graphics/SVG/1.1/DTD/svg11.dtd">
<svg width="100%" height="100%" viewBox="0 0 1000 1223" version="1.1" xmlns="http://www.w3.org/2000/svg" xmlns:xlink="http://www.w3.org/1999/xlink" xml:space="preserve" xmlns:serif="http://www.serif.com/" style="fill-rule:evenodd;clip-rule:evenodd;stroke-linejoin:round;stroke-miterlimit:2;">
    <path d="M77.088,904.512L154.176,1071.84L230.957,904.512L308.351,904.512L153.564,1222.96L-0,904.512L77.088,904.512ZM328.847,1051.35C328.847,1008.32 344.244,971.709 375.038,941.527C405.833,911.344 443.357,896.253 487.611,896.253C532.069,896.253 569.797,911.446 600.795,941.833C631.386,972.219 646.681,1009.54 646.681,1053.79C646.681,1098.45 631.284,1135.88 600.489,1166.06C569.491,1196.04 531.457,1211.03 486.387,1211.03C441.725,1211.03 404.303,1195.73 374.121,1165.14C343.938,1134.96 328.847,1097.03 328.847,1051.35ZM399.205,1052.57C399.205,1082.34 407.158,1105.9 423.065,1123.23C439.38,1140.77 460.895,1149.54 487.611,1149.54C514.53,1149.54 536.046,1140.87 552.157,1123.54C568.268,1106.2 576.323,1083.06 576.323,1054.1C576.323,1025.14 568.268,1001.99 552.157,984.659C535.842,967.121 514.327,958.351 487.611,958.351C461.303,958.351 439.992,967.121 423.677,984.659C407.362,1002.2 399.205,1024.83 399.205,1052.57ZM788.314,866.025L788.314,1202.46L719.486,1202.46L719.486,866.025L788.314,866.025ZM788.314,796.025L719.486,796.025L719.486,685.791L788.314,685.791L788.314,796.025ZM946.467,866.025L946.467,904.512L1000,904.512L1000,968.752L946.467,968.752L946.467,1202.46L877.638,1202.46L877.638,968.752L848.272,968.752L848.272,904.512L877.638,904.512L877.638,866.025L946.467,866.025ZM877.638,796.025L877.638,866.025L788.314,866.025L788.314,796.025L877.638,796.025ZM878.308,795.305L500,140.056L121.276,796.025L719.486,796.025L719.486,866.025L-0,866.025L500,0L1000,866.025L946.467,866.025L946.467,795.305L878.308,795.305Z" style="fill:white;fill-rule:nonzero;"/>
</svg>
